<mxfile host="app.diagrams.net" agent="Mozilla/5.0 (Windows NT 10.0; Win64; x64) AppleWebKit/537.36 (KHTML, like Gecko) Chrome/131.0.0.0 Safari/537.36" version="25.0.3">
  <diagram name="Page-1" id="MTo8a-Jam3NFmFl6J-9u">
    <mxGraphModel dx="2537" dy="878" grid="1" gridSize="10" guides="1" tooltips="1" connect="1" arrows="1" fold="1" page="1" pageScale="1" pageWidth="850" pageHeight="1100" math="0" shadow="0">
      <root>
        <mxCell id="0" />
        <mxCell id="1" parent="0" />
        <mxCell id="BXqlN0ZBgguIjdxf9FFt-8" style="edgeStyle=orthogonalEdgeStyle;rounded=0;orthogonalLoop=1;jettySize=auto;html=1;entryX=0.5;entryY=0;entryDx=0;entryDy=0;" edge="1" parent="1" source="BXqlN0ZBgguIjdxf9FFt-1" target="BXqlN0ZBgguIjdxf9FFt-3">
          <mxGeometry relative="1" as="geometry" />
        </mxCell>
        <mxCell id="BXqlN0ZBgguIjdxf9FFt-1" value="&lt;font style=&quot;font-size: 24px;&quot;&gt;start&lt;/font&gt;" style="strokeWidth=2;html=1;shape=mxgraph.flowchart.start_1;whiteSpace=wrap;" vertex="1" parent="1">
          <mxGeometry x="-484" y="80" width="100" height="60" as="geometry" />
        </mxCell>
        <mxCell id="BXqlN0ZBgguIjdxf9FFt-2" value="&lt;font style=&quot;font-size: 24px;&quot;&gt;end&lt;/font&gt;" style="strokeWidth=2;html=1;shape=mxgraph.flowchart.start_1;whiteSpace=wrap;" vertex="1" parent="1">
          <mxGeometry x="-484" y="890" width="100" height="60" as="geometry" />
        </mxCell>
        <mxCell id="BXqlN0ZBgguIjdxf9FFt-9" style="edgeStyle=orthogonalEdgeStyle;rounded=0;orthogonalLoop=1;jettySize=auto;html=1;entryX=0.5;entryY=0;entryDx=0;entryDy=0;" edge="1" parent="1" source="BXqlN0ZBgguIjdxf9FFt-3" target="BXqlN0ZBgguIjdxf9FFt-4">
          <mxGeometry relative="1" as="geometry" />
        </mxCell>
        <mxCell id="BXqlN0ZBgguIjdxf9FFt-3" value="input namA, ageA" style="shape=parallelogram;perimeter=parallelogramPerimeter;whiteSpace=wrap;html=1;fixedSize=1;" vertex="1" parent="1">
          <mxGeometry x="-510" y="190" width="152" height="30" as="geometry" />
        </mxCell>
        <mxCell id="BXqlN0ZBgguIjdxf9FFt-10" style="edgeStyle=orthogonalEdgeStyle;rounded=0;orthogonalLoop=1;jettySize=auto;html=1;entryX=0.5;entryY=0;entryDx=0;entryDy=0;" edge="1" parent="1" source="BXqlN0ZBgguIjdxf9FFt-4" target="BXqlN0ZBgguIjdxf9FFt-5">
          <mxGeometry relative="1" as="geometry" />
        </mxCell>
        <mxCell id="BXqlN0ZBgguIjdxf9FFt-4" value="fgets(input, sizeof(input), stdin)" style="rounded=1;whiteSpace=wrap;html=1;absoluteArcSize=1;arcSize=14;strokeWidth=2;" vertex="1" parent="1">
          <mxGeometry x="-524" y="270" width="180" height="40" as="geometry" />
        </mxCell>
        <mxCell id="BXqlN0ZBgguIjdxf9FFt-11" style="edgeStyle=orthogonalEdgeStyle;rounded=0;orthogonalLoop=1;jettySize=auto;html=1;" edge="1" parent="1" source="BXqlN0ZBgguIjdxf9FFt-5" target="BXqlN0ZBgguIjdxf9FFt-6">
          <mxGeometry relative="1" as="geometry" />
        </mxCell>
        <mxCell id="BXqlN0ZBgguIjdxf9FFt-5" value="length = strlen(input)" style="rounded=1;whiteSpace=wrap;html=1;absoluteArcSize=1;arcSize=14;strokeWidth=2;" vertex="1" parent="1">
          <mxGeometry x="-524" y="350" width="180" height="40" as="geometry" />
        </mxCell>
        <mxCell id="BXqlN0ZBgguIjdxf9FFt-12" style="edgeStyle=orthogonalEdgeStyle;rounded=0;orthogonalLoop=1;jettySize=auto;html=1;entryX=0.5;entryY=0;entryDx=0;entryDy=0;" edge="1" parent="1" source="BXqlN0ZBgguIjdxf9FFt-6" target="BXqlN0ZBgguIjdxf9FFt-7">
          <mxGeometry relative="1" as="geometry" />
        </mxCell>
        <mxCell id="BXqlN0ZBgguIjdxf9FFt-16" style="edgeStyle=orthogonalEdgeStyle;rounded=0;orthogonalLoop=1;jettySize=auto;html=1;entryX=0.5;entryY=0;entryDx=0;entryDy=0;" edge="1" parent="1" source="BXqlN0ZBgguIjdxf9FFt-6" target="BXqlN0ZBgguIjdxf9FFt-13">
          <mxGeometry relative="1" as="geometry" />
        </mxCell>
        <mxCell id="BXqlN0ZBgguIjdxf9FFt-6" value="if (input[length - 1] == &#39;&quot;&#39;)" style="rhombus;whiteSpace=wrap;html=1;" vertex="1" parent="1">
          <mxGeometry x="-521.5" y="440" width="175" height="90" as="geometry" />
        </mxCell>
        <mxCell id="BXqlN0ZBgguIjdxf9FFt-17" style="edgeStyle=orthogonalEdgeStyle;rounded=0;orthogonalLoop=1;jettySize=auto;html=1;entryX=0.5;entryY=0;entryDx=0;entryDy=0;exitX=0.5;exitY=1;exitDx=0;exitDy=0;" edge="1" parent="1" source="BXqlN0ZBgguIjdxf9FFt-7" target="BXqlN0ZBgguIjdxf9FFt-13">
          <mxGeometry relative="1" as="geometry" />
        </mxCell>
        <mxCell id="BXqlN0ZBgguIjdxf9FFt-7" value="input[length -1] = &quot;0&quot;" style="rounded=1;whiteSpace=wrap;html=1;absoluteArcSize=1;arcSize=14;strokeWidth=2;" vertex="1" parent="1">
          <mxGeometry x="-344" y="530" width="180" height="40" as="geometry" />
        </mxCell>
        <mxCell id="BXqlN0ZBgguIjdxf9FFt-21" style="edgeStyle=orthogonalEdgeStyle;rounded=0;orthogonalLoop=1;jettySize=auto;html=1;entryX=0.5;entryY=0;entryDx=0;entryDy=0;" edge="1" parent="1" source="BXqlN0ZBgguIjdxf9FFt-13" target="BXqlN0ZBgguIjdxf9FFt-19">
          <mxGeometry relative="1" as="geometry" />
        </mxCell>
        <mxCell id="BXqlN0ZBgguIjdxf9FFt-13" value="output&lt;div&gt;&quot;Output: &quot;&lt;/div&gt;" style="shape=parallelogram;perimeter=parallelogramPerimeter;whiteSpace=wrap;html=1;fixedSize=1;" vertex="1" parent="1">
          <mxGeometry x="-510" y="650" width="152" height="30" as="geometry" />
        </mxCell>
        <mxCell id="BXqlN0ZBgguIjdxf9FFt-22" style="edgeStyle=orthogonalEdgeStyle;rounded=0;orthogonalLoop=1;jettySize=auto;html=1;entryX=0.5;entryY=0;entryDx=0;entryDy=0;" edge="1" parent="1" source="BXqlN0ZBgguIjdxf9FFt-19" target="BXqlN0ZBgguIjdxf9FFt-20">
          <mxGeometry relative="1" as="geometry" />
        </mxCell>
        <mxCell id="BXqlN0ZBgguIjdxf9FFt-19" value="for ( i = length -1, i &amp;gt;= 0, i--)" style="rhombus;whiteSpace=wrap;html=1;" vertex="1" parent="1">
          <mxGeometry x="-521.5" y="730" width="175" height="90" as="geometry" />
        </mxCell>
        <mxCell id="BXqlN0ZBgguIjdxf9FFt-23" style="edgeStyle=orthogonalEdgeStyle;rounded=0;orthogonalLoop=1;jettySize=auto;html=1;entryX=1;entryY=1;entryDx=0;entryDy=0;" edge="1" parent="1" source="BXqlN0ZBgguIjdxf9FFt-20" target="BXqlN0ZBgguIjdxf9FFt-19">
          <mxGeometry relative="1" as="geometry" />
        </mxCell>
        <mxCell id="BXqlN0ZBgguIjdxf9FFt-20" value="output input[i]" style="shape=parallelogram;perimeter=parallelogramPerimeter;whiteSpace=wrap;html=1;fixedSize=1;" vertex="1" parent="1">
          <mxGeometry x="-344" y="830" width="152" height="30" as="geometry" />
        </mxCell>
        <mxCell id="BXqlN0ZBgguIjdxf9FFt-24" style="edgeStyle=orthogonalEdgeStyle;rounded=0;orthogonalLoop=1;jettySize=auto;html=1;entryX=0.5;entryY=0;entryDx=0;entryDy=0;entryPerimeter=0;" edge="1" parent="1" source="BXqlN0ZBgguIjdxf9FFt-19" target="BXqlN0ZBgguIjdxf9FFt-2">
          <mxGeometry relative="1" as="geometry" />
        </mxCell>
      </root>
    </mxGraphModel>
  </diagram>
</mxfile>
